<?xml version="1.0" encoding="UTF-8"?>
<svg id="Layer_1" data-name="Layer 1" xmlns="http://www.w3.org/2000/svg" viewBox="0 0 2000 2000">
  <defs>
    <style>
      .cls-1 {
        fill: #fff;
      }

      .cls-2 {
        letter-spacing: 0em;
      }

      .cls-3 {
        fill: #505059;
        font-family: DIN2014-ExtraBoldItalic, 'DIN 2014';
        font-size: 250px;
        font-style: italic;
        font-weight: 700;
      }

      .cls-4 {
        fill: #1a1a1d;
        stroke: #fff;
        stroke-miterlimit: 10;
        stroke-width: 28px;
      }
    </style>
  </defs>
  <rect class="cls-4" x="128.78" y="128.78" width="1742.44" height="1742.44" rx="147.92" ry="147.92"/>
  <path class="cls-1" d="M812.63,938.13c-25.74,104.51-86.77,125.56-228.85,125.56l23.84-96.24c37.19,0,57.21-9.77,65.79-42.86l93.45-379.69h143.03l-97.26,393.23ZM797.38,402.05h152.57l-25.75,105.26h-152.57l25.75-105.26Z"/>
  <path class="cls-1" d="M1323.72,920.84h-140.17l5.72-24.81c-24.79,22.56-49.58,32.33-107.75,32.33-86.77,0-165.92-42.1-139.22-148.87l58.17-234.58h143.03l-52.44,213.53c-12.4,51.13-2.86,73.68,44.82,73.68s71.51-21.05,83.91-72.93l52.44-214.28h143.98l-92.49,375.93ZM1098.69,402.05h275.57l-23.84,97.74h-275.57l23.84-97.74Z"/>
  <path class="cls-1" d="M620.16,1214.5h61.03l20.02-82.71h143.03l-20.02,82.71h85.82l-23.84,94.74h-85.82l-34.33,140.6c-7.63,30.07,0,42.86,35.28,42.86h40.05l-23.84,97.74h-56.26c-113.47,0-164.96-33.08-142.08-126.31l38.14-154.88h-61.03l23.84-94.74Z"/>
  <path class="cls-1" d="M1330.54,1423.52c-25.74,109.02-93.45,174.43-252.69,174.43-135.4,0-192.61-75.94-166.87-174.43l11.44-44.36c28.61-110.52,102.03-172.18,251.73-172.18,135.4,0,188.8,64.66,166.87,172.93l-10.49,43.61ZM1189.41,1418.25l7.63-33.08c13.35-55.64,5.72-83.46-45.77-83.46s-74.38,27.82-87.73,83.46l-7.63,33.08c-11.44,49.62-13.35,84.96,45.77,84.96s76.28-35.34,87.73-84.96Z"/>
  <text class="cls-3" transform="translate(972.51 1133.75)"><tspan class="cls-2" x="0" y="0">.c</tspan><tspan x="180.75" y="0">o</tspan></text>
</svg>