<?xml version="1.0" encoding="UTF-8"?>
<svg id="Layer_1" xmlns="http://www.w3.org/2000/svg" version="1.1" viewBox="0 0 800 800">
  <!-- Generator: Adobe Illustrator 30.0.0, SVG Export Plug-In . SVG Version: 2.1.1 Build 123)  -->
  <path d="M76,165.4C37.4,218.6,11.6,281.6,3.1,350h793.8c-8.5-68.4-34.3-131.4-72.9-184.6-2.1,1.2-4.2,2.3-6.3,3.5-74.3,40.5-182.5,81.1-317.7,81.1s-243.4-40.6-317.7-81.1c-2.1-1.2-4.2-2.3-6.3-3.5Z"/>
  <path d="M652.8,90c-62.2,31.3-147.9,60-252.8,60s-190.6-28.7-252.8-60C216.1,33.7,304.1,0,400,0s183.9,33.7,252.8,90Z"/>
  <path d="M3.1,450c8.5,68.4,34.3,131.4,72.9,184.6,2.1-1.2,4.2-2.3,6.3-3.5,74.3-40.5,182.5-81.1,317.7-81.1s243.4,40.6,317.7,81.1c2.1,1.2,4.2,2.3,6.3,3.5,38.6-53.2,64.4-116.2,72.9-184.6H3.1Z"/>
  <path d="M400,800c-95.9,0-183.9-33.7-252.8-90,62.2-31.3,147.9-60,252.8-60s190.6,28.7,252.8,60c-68.9,56.3-156.9,90-252.8,90Z"/>
</svg>