<?xml version="1.0" encoding="UTF-8"?>
<svg id="Layer_2" data-name="Layer 2" xmlns="http://www.w3.org/2000/svg" viewBox="0 0 365.28 165.8">
  <defs>
    <style>
      .cls-1 {
        fill: none;
        stroke: #000;
        stroke-linecap: round;
        stroke-linejoin: round;
        stroke-width: 4px;
      }
    </style>
  </defs>
  <g id="Layer_1-2" data-name="Layer 1">
    <path class="cls-1" d="M2,163.8c24.64-11.01,51.74-20.71,75.53-33.15,25.25-18.28,70.33-49.34,50.44-85.19-31.44-32.18-99.37,6.12-56.15,43.76,27.06,17.92,86.13-.1,93.15,43.18-3.48,21.67-40.07,30.91-56.11,17.48-18.72-17.19-.45-40.31,11.85-55.05,12.9-21.24,22.9-56.41,2.9-75.97C92.89-9.94,19.66-3.42,28.8,50.7c2.23,16.54,11.53,29.95,26.31,38.11,74.05,34.45,239.6-19.1,308.18,13.01"/>
  </g>
</svg>